<?xml version="1.0" encoding="UTF-8" standalone="no"?>
<!-- Uploaded to: SVG Repo, www.svgrepo.com, Generator: SVG Repo Mixer Tools -->

<svg
   fill="#000000"
   width="800px"
   height="800px"
   viewBox="0 0 256 256"
   id="Flat"
   version="1.1"
   sodipodi:docname="bird.svg"
   inkscape:version="1.1.1 (3bf5ae0d25, 2021-09-20)"
   xmlns:inkscape="http://www.inkscape.org/namespaces/inkscape"
   xmlns:sodipodi="http://sodipodi.sourceforge.net/DTD/sodipodi-0.dtd"
   xmlns="http://www.w3.org/2000/svg"
   xmlns:svg="http://www.w3.org/2000/svg">
  <defs
     id="defs9" />
  <sodipodi:namedview
     id="namedview7"
     pagecolor="#505050"
     bordercolor="#ffffff"
     borderopacity="1"
     inkscape:pageshadow="0"
     inkscape:pageopacity="0"
     inkscape:pagecheckerboard="1"
     showgrid="false"
     inkscape:zoom="0.93125"
     inkscape:cx="400"
     inkscape:cy="400"
     inkscape:window-width="1858"
     inkscape:window-height="1057"
     inkscape:window-x="54"
     inkscape:window-y="240"
     inkscape:window-maximized="1"
     inkscape:current-layer="Flat" />
  <path
     d="M232,80,208,96v24a95.99991,95.99991,0,0,1-96,96H8L104,96V76A52.00739,52.00739,0,0,1,206.33276,62.8877Z"
     opacity="0.2"
     id="path2" />
  <path
     d="M176,68a12,12,0,1,1-12-12A12,12,0,0,1,176,68Zm-50.87891,61.85449a7.99847,7.99847,0,0,0-11.2666,1.02393l-40,48a7.99987,7.99987,0,1,0,12.291,10.24316l40-48A7.999,7.999,0,0,0,125.12109,129.85449ZM240,80a7.99943,7.99943,0,0,1-3.5625,6.65625L216,100.28125V120A104.11791,104.11791,0,0,1,112,224H8a7.99963,7.99963,0,0,1-6.24707-12.99756L96,93.19385V76A60.00943,60.00943,0,0,1,213.207,57.85547L236.4375,73.34375A7.99943,7.99943,0,0,1,240,80Zm-22.42188,0L201.89551,69.544a8.00117,8.00117,0,0,1-3.30567-4.64454A44.0074,44.0074,0,0,0,112,76V96a8.00033,8.00033,0,0,1-1.75293,4.99756L24.64453,208H112a88.09957,88.09957,0,0,0,88-88V96a7.99943,7.99943,0,0,1,3.5625-6.65625Z"
     id="path4"
     style="fill:#ffffff" />
</svg>
