<?xml version="1.0" encoding="UTF-8" standalone="no"?>
<!-- Uploaded to: SVG Repo, www.svgrepo.com, Generator: SVG Repo Mixer Tools -->

<svg
   fill="#000000"
   height="800px"
   width="800px"
   version="1.1"
   id="Capa_1"
   viewBox="0 0 60 60"
   xml:space="preserve"
   sodipodi:docname="caye.svg"
   inkscape:version="1.1.1 (3bf5ae0d25, 2021-09-20)"
   xmlns:inkscape="http://www.inkscape.org/namespaces/inkscape"
   xmlns:sodipodi="http://sodipodi.sourceforge.net/DTD/sodipodi-0.dtd"
   xmlns="http://www.w3.org/2000/svg"
   xmlns:svg="http://www.w3.org/2000/svg"><defs
   id="defs21" /><sodipodi:namedview
   id="namedview19"
   pagecolor="#505050"
   bordercolor="#ffffff"
   borderopacity="1"
   inkscape:pageshadow="0"
   inkscape:pageopacity="0"
   inkscape:pagecheckerboard="1"
   showgrid="false"
   inkscape:zoom="0.93125"
   inkscape:cx="400"
   inkscape:cy="400"
   inkscape:window-width="1858"
   inkscape:window-height="1057"
   inkscape:window-x="54"
   inkscape:window-y="240"
   inkscape:window-maximized="1"
   inkscape:current-layer="Capa_1" />
<g
   id="g16"
   style="fill:#ffffff">
	<path
   d="M0.999,19.5c0.303,0,0.603-0.137,0.799-0.397c0.918-1.217,2.823-3.294,5.259-3.529c0.712-0.069,1.423,0.035,2.128,0.305   C4.482,17.127,1,21.409,1,26.5c0,0.552,0.448,1,1,1s1-0.448,1-1c0-3.307,1.799-6.196,4.464-7.76   c-1.189,3.342,0.159,8.253,2.897,10.529C10.548,29.424,10.774,29.5,11,29.5c0.287,0,0.572-0.123,0.77-0.361   c0.353-0.424,0.295-1.055-0.13-1.408c-2.095-1.742-3.205-5.796-2.285-8.342c0.305-0.845,0.794-1.395,1.473-1.673   c3.607,2.639,6.577,6.548,8.968,10.786l4.378-3.031c-2.825-4.136-6.396-7.869-10.848-10.372c0.624-1.245,2.016-1.867,2.939-2.151   c2.664-0.82,5.957-0.288,6.909,1.113c0.31,0.457,0.933,0.575,1.389,0.265c0.457-0.311,0.576-0.933,0.265-1.389   c-1.637-2.408-6.023-2.862-9.151-1.901c-0.405,0.125-0.781,0.273-1.138,0.436C16.157,9.078,18.898,7.5,22,7.5c0.552,0,1-0.448,1-1   s-0.448-1-1-1c-5.098,0-9.385,3.491-10.626,8.205c-0.471-1.314-0.429-2.789,0.169-4.234C12.527,7.096,14.72,5.5,17,5.5   c0.552,0,1-0.448,1-1s-0.448-1-1-1c-3.08,0-6.015,2.092-7.305,5.207c-0.716,1.729-0.815,3.491-0.374,5.111   c-0.804-0.231-1.623-0.316-2.456-0.234c-3.197,0.308-5.547,2.835-6.663,4.314c-0.333,0.441-0.245,1.068,0.196,1.401   C0.578,19.434,0.79,19.5,0.999,19.5z"
   id="path2"
   style="fill:#ffffff" />
	<path
   d="M30.769,17.139c1.741-2.095,5.794-3.207,8.342-2.285c0.883,0.319,1.443,0.839,1.707,1.566   c-4.155,6.262-7.546,12.602-9.81,18.349l-0.146,0.373l0.151,0.371c0.716,1.759,1.375,3.583,1.958,5.422l1.056,3.329l0.866-3.383   c2.259-8.826,7.306-18.206,9.211-21.565c0.784,0.706,1.224,1.721,1.448,2.449c0.819,2.663,0.289,5.956-1.113,6.909   c-0.457,0.311-0.576,0.933-0.265,1.389c0.193,0.285,0.508,0.438,0.828,0.438c0.193,0,0.389-0.056,0.561-0.173   c2.409-1.637,2.863-6.025,1.901-9.151c-0.125-0.405-0.273-0.781-0.436-1.138C49.422,21.657,51,24.398,51,27.5c0,0.552,0.448,1,1,1   s1-0.448,1-1c0-4.986-3.338-9.202-7.894-10.546l-0.215-0.114c1.29-0.435,2.729-0.382,4.138,0.203C51.404,18.027,53,20.22,53,22.5   c0,0.552,0.448,1,1,1s1-0.448,1-1c0-3.08-2.092-6.015-5.207-7.305c-1.725-0.715-3.485-0.815-5.102-0.376   c0.365-1.241,0.346-2.365,0.189-3.239c-0.439-2.442-2.036-4.255-3.422-4.968c-0.491-0.251-1.094-0.059-1.347,0.432   c-0.253,0.491-0.06,1.094,0.432,1.347c0.948,0.488,2.066,1.861,2.369,3.543c0.167,0.926,0.06,1.853-0.29,2.752   C41.373,9.981,37.091,6.5,32,6.5c-0.552,0-1,0.448-1,1s0.448,1,1,1c3.307,0,6.196,1.799,7.76,4.464   c-3.34-1.19-8.253,0.159-10.529,2.897c-0.353,0.424-0.295,1.055,0.13,1.408C29.784,17.622,30.416,17.565,30.769,17.139z"
   id="path4"
   style="fill:#ffffff" />
	<path
   d="M22.397,33.684l5.113-2.557c-0.683-1.336-1.431-2.669-2.246-3.978l-4.509,3.122C21.341,31.402,21.886,32.545,22.397,33.684   z"
   id="path6"
   style="fill:#ffffff" />
	<path
   d="M24.641,39.253l5.37-2.593c-0.487-1.222-1.026-2.474-1.621-3.737l-5.197,2.598C23.723,36.793,24.203,38.043,24.641,39.253z   "
   id="path8"
   style="fill:#ffffff" />
	<path
   d="M25.305,41.153c0.636,1.886,1.152,3.615,1.56,5.09l5.469-2.844c-0.436-1.483-0.968-3.128-1.606-4.865L25.305,41.153z"
   id="path10"
   style="fill:#ffffff" />
	<path
   d="M28.062,51.104l0.978-0.207c0,0,0.001,0.005,0.001,0.005l3.918-0.803l0.98-0.2l-0.022-0.114   c-0.169-0.867-0.499-2.423-1.03-4.418l-5.495,2.857c0.41,1.618,0.626,2.666,0.666,2.862L28.062,51.104z"
   id="path12"
   style="fill:#ffffff" />
	<path
   d="M36.494,46.724c-0.395-0.015-0.811-0.033-1.214-0.049c0.297,1.233,0.494,2.186,0.599,2.728l0.405,2.06l-9.768,2.014   l-0.416-1.979c-0.026-0.128-0.236-1.158-0.648-2.783l-0.233-0.922l-0.281-1.017c-0.013-0.048-0.029-0.096-0.042-0.145   C10.972,47.037,0,47.39,0,55.5c0,0.552,0.448,1,1,1h58c0.552,0,1-0.448,1-1C60,47.64,49.627,47.235,36.494,46.724z"
   id="path14"
   style="fill:#ffffff" />
</g>
</svg>
