<?xml version="1.0" encoding="UTF-8" standalone="no"?>
<!-- Uploaded to: SVG Repo, www.svgrepo.com, Generator: SVG Repo Mixer Tools -->

<svg
   fill="#000000"
   height="800px"
   width="800px"
   version="1.1"
   id="Capa_1"
   viewBox="0 0 297 297"
   xml:space="preserve"
   sodipodi:docname="pyramid.svg"
   inkscape:version="1.1.1 (3bf5ae0d25, 2021-09-20)"
   xmlns:inkscape="http://www.inkscape.org/namespaces/inkscape"
   xmlns:sodipodi="http://sodipodi.sourceforge.net/DTD/sodipodi-0.dtd"
   xmlns="http://www.w3.org/2000/svg"
   xmlns:svg="http://www.w3.org/2000/svg"><defs
   id="defs27" /><sodipodi:namedview
   id="namedview25"
   pagecolor="#505050"
   bordercolor="#ffffff"
   borderopacity="1"
   inkscape:pageshadow="0"
   inkscape:pageopacity="0"
   inkscape:pagecheckerboard="1"
   showgrid="false"
   inkscape:zoom="0.93125"
   inkscape:cx="400"
   inkscape:cy="400"
   inkscape:window-width="1858"
   inkscape:window-height="1057"
   inkscape:window-x="54"
   inkscape:window-y="240"
   inkscape:window-maximized="1"
   inkscape:current-layer="Capa_1" />
<g
   id="g22"
   style="fill:#ffffff">
	<path
   d="M220.155,61.875c0-5.467-4.433-9.9-9.9-9.9H86.745c-5.467,0-9.9,4.433-9.9,9.9v10.704h143.31V61.875z"
   id="path2"
   style="fill:#ffffff" />
	<path
   d="M210.61,142.869h53.389v-11.694c0-5.467-4.433-9.9-9.9-9.9h-53.13L210.61,142.869z"
   id="path4"
   style="fill:#ffffff" />
	<path
   d="M185.596,86.839l9.545,21.38h47.74V96.525c0-5.467-4.433-9.9-9.9-9.9h-47.49C185.524,86.698,185.563,86.766,185.596,86.839   z"
   id="path6"
   style="fill:#ffffff" />
	<path
   d="M172.94,92.49c-1.592-3.568-5.133-5.865-9.04-5.865h-30.8c-3.907,0-7.447,2.297-9.04,5.865L62.461,230.467   c-1.368,3.062-1.091,6.609,0.734,9.423c1.825,2.813,4.952,4.512,8.306,4.512H225.5c0.008,0,0.013,0,0.02,0   c5.467,0,9.9-4.433,9.9-9.9c0-1.662-0.41-3.229-1.134-4.604L172.94,92.49z"
   id="path8"
   style="fill:#ffffff" />
	<path
   d="M224.975,175.044H281.6v-9.219c0-5.467-4.433-9.9-9.9-9.9h-55.261L224.975,175.044z"
   id="path10"
   style="fill:#ffffff" />
	<path
   d="M111.404,86.84c0.033-0.074,0.072-0.142,0.106-0.215h-47.49c-5.467,0-9.9,4.433-9.9,9.9v11.694h47.74L111.404,86.84z"
   id="path12"
   style="fill:#ffffff" />
	<path
   d="M287.1,190.575h-55.192l14.891,33.354c1.625,3.268,2.481,6.912,2.481,10.574c0,3.777-0.89,7.349-2.465,10.523H287.1   c5.467,0,9.9-4.433,9.9-9.9v-34.65C297,195.008,292.567,190.575,287.1,190.575z"
   id="path14"
   style="fill:#ffffff" />
	<path
   d="M49.805,224.817l15.287-34.242H9.9c-5.467,0-9.9,4.433-9.9,9.9v34.65c0,5.467,4.433,9.9,9.9,9.9h40.302   C47.074,238.714,46.888,231.344,49.805,224.817z"
   id="path16"
   style="fill:#ffffff" />
	<path
   d="M80.561,155.925H25.3c-5.467,0-9.9,4.433-9.9,9.9v9.219h56.625L80.561,155.925z"
   id="path18"
   style="fill:#ffffff" />
	<path
   d="M96.031,121.275h-53.13c-5.467,0-9.9,4.433-9.9,9.9v11.694H86.39L96.031,121.275z"
   id="path20"
   style="fill:#ffffff" />
</g>
</svg>
