<?xml version="1.0" encoding="UTF-8" standalone="no"?>
<!-- Uploaded to: SVG Repo, www.svgrepo.com, Generator: SVG Repo Mixer Tools -->

<svg
   fill="#000000"
   height="800px"
   width="800px"
   version="1.1"
   id="Capa_1"
   viewBox="0 0 178.826 178.826"
   xml:space="preserve"
   sodipodi:docname="sailing.svg"
   inkscape:version="1.1.1 (3bf5ae0d25, 2021-09-20)"
   xmlns:inkscape="http://www.inkscape.org/namespaces/inkscape"
   xmlns:sodipodi="http://sodipodi.sourceforge.net/DTD/sodipodi-0.dtd"
   xmlns="http://www.w3.org/2000/svg"
   xmlns:svg="http://www.w3.org/2000/svg"><defs
   id="defs7" /><sodipodi:namedview
   id="namedview5"
   pagecolor="#505050"
   bordercolor="#ffffff"
   borderopacity="1"
   inkscape:pageshadow="0"
   inkscape:pageopacity="0"
   inkscape:pagecheckerboard="1"
   showgrid="false"
   inkscape:zoom="0.93125"
   inkscape:cx="400"
   inkscape:cy="400"
   inkscape:window-width="1858"
   inkscape:window-height="1057"
   inkscape:window-x="54"
   inkscape:window-y="240"
   inkscape:window-maximized="1"
   inkscape:current-layer="Capa_1" />
<path
   d="M146.33,178.826H18.976c-2.849,0-5.454-1.785-6.482-4.442L4.26,153.111c-0.81-2.093-0.556-4.461,0.679-6.335  c1.235-1.874,3.312-3.04,5.554-3.121l55.929-2.005c-0.276-0.402-0.438-0.889-0.438-1.414v-5.386l-39.294-3.449  c-0.775-0.068-1.475-0.494-1.892-1.151s-0.504-1.472-0.235-2.202L65.985,15.43V6.801c-2.571-0.982-5.892-1.9-7.979-1.803  c0.137,0.279,0.289,0.568,0.413,0.807c0.849,1.622,3.104,5.929-0.887,8.02c-4.27,2.235-14.366-2.47-18.508-4.597  c-1.228-0.631-1.712-2.137-1.082-3.366c0.63-1.228,2.136-1.714,3.366-1.083c5.257,2.697,11.171,4.75,13.35,4.699  c-0.188-0.438-0.47-0.977-0.668-1.355c-0.88-1.681-1.877-3.586-1.054-5.52C53.261,1.84,54,0.827,55.673,0.339  c4.737-1.379,12.353,1.845,13.832,2.505c0.9,0.402,1.48,1.296,1.48,2.283v8.913c9.625,3.138,53.754,19.034,65.998,50.209  c10.632,27.074,6.545,50.776,3.163,62.495c-1.414,4.896-5.965,8.316-11.069,8.316H70.985v5.176c0,0.46-0.125,0.892-0.342,1.263  l98.754-3.541c2.125-0.073,4.032,1.041,5.011,2.914c0.979,1.873,0.799,4.087-0.469,5.778l-22.047,29.396  C150.585,177.787,148.506,178.826,146.33,178.826z M169.605,142.954c-0.012,0-0.021,0-0.03,0.001l-158.903,5.697  c-0.639,0.022-1.207,0.342-1.559,0.875c-0.352,0.534-0.421,1.182-0.19,1.778l8.233,21.273c0.293,0.757,1.007,1.247,1.819,1.247  H146.33c0.611,0,1.194-0.292,1.562-0.781l22.047-29.396c0.041-0.054,0.165-0.219,0.038-0.462  C169.865,142.974,169.691,142.954,169.605,142.954z M74.153,130.06h54.923c2.889,0,5.465-1.934,6.265-4.703  c3.207-11.109,7.079-33.583-3.013-59.28c-10.027-25.534-44.691-40.618-58.657-45.782c5.566,10.906,16.951,35.528,18.234,56.714  C93.487,103.105,80.85,121.987,74.153,130.06z M30.384,126.706l35.601,3.125V29.914L30.384,126.706z M70.985,26.173v99.782  c6.311-7.973,17.337-25.418,15.929-48.643C85.822,59.286,76.721,37.994,70.985,26.173z"
   id="path2"
   style="fill:#ffffff" />
</svg>
