<svg width="1440" height="2740" viewBox="0 0 1440 2740" fill="none" xmlns="http://www.w3.org/2000/svg">
<path d="M1087 1280.5C1640.5 528 1352.3 21.0777 1113.5 183C874.703 344.922 -505.033 1117.41 -427 692.5C-348.968 267.588 -292.295 248.955 -67.0001 97C391.835 -212.471 852.329 290.114 1219 692.5C1427.27 921.053 1475.77 946.353 1469.5 1255.5C1457.69 1837.4 635.518 2301.65 198.5 1905C-29.2548 1698.29 -432.14 1219.57 85.5 1255.5C603.14 1291.43 580 1042.5 1113.5 1217.5C1647 1392.5 1656.4 1889.98 1511 2272.5C1289.39 2855.49 1103.09 2741.49 480.5 2704.5C388.118 2699.01 -112.691 2582.02 -138 2493C-181.5 2340 533.5 2033 1087 1280.5Z" stroke="#575757" stroke-dasharray="20 20"/>
</svg>
